<svg width="24" height="24" viewBox="0 0 24 24" fill="none" xmlns="http://www.w3.org/2000/svg">
<path d="M15.69 11.8819L9.97571 6.16759C9.8958 6.08759 9.79394 6.03309 9.68303 6.011C9.57213 5.98892 9.45716 6.00024 9.35269 6.04352C9.24822 6.08681 9.15894 6.16012 9.09616 6.25417C9.03338 6.34823 8.99991 6.4588 9 6.57188V18.0005C8.99991 18.1135 9.03338 18.2241 9.09616 18.3182C9.15894 18.4122 9.24822 18.4855 9.35269 18.5288C9.45716 18.5721 9.57213 18.5834 9.68303 18.5613C9.79394 18.5392 9.8958 18.4847 9.97571 18.4047L15.69 12.6905C15.7431 12.6374 15.7853 12.5744 15.814 12.505C15.8428 12.4356 15.8576 12.3613 15.8576 12.2862C15.8576 12.2111 15.8428 12.1367 15.814 12.0673C15.7853 11.998 15.7431 11.9349 15.69 11.8819Z" fill="#414651"/>
</svg>
