<svg width="24" height="24" viewBox="0 0 24 24" fill="none" xmlns="http://www.w3.org/2000/svg">
<path d="M18.5283 9.35286C18.4851 9.24843 18.4119 9.15918 18.3179 9.09637C18.2239 9.03356 18.1135 9.00002 18.0005 9H6.57188C6.4588 8.99991 6.34823 9.03338 6.25417 9.09616C6.16012 9.15894 6.08681 9.24822 6.04352 9.35269C6.00024 9.45716 5.98892 9.57213 6.011 9.68303C6.03309 9.79394 6.08759 9.8958 6.16759 9.97571L11.8819 15.69C11.9349 15.7431 11.998 15.7853 12.0673 15.814C12.1367 15.8428 12.2111 15.8576 12.2862 15.8576C12.3613 15.8576 12.4356 15.8428 12.505 15.814C12.5744 15.7853 12.6374 15.7431 12.6905 15.69L18.4047 9.97571C18.4846 9.89576 18.539 9.7939 18.561 9.68303C18.583 9.57216 18.5716 9.45726 18.5283 9.35286Z" fill="#414651"/>
</svg>
