<svg width="24" height="24" viewBox="0 0 24 24" fill="none" xmlns="http://www.w3.org/2000/svg">
<path d="M15.5046 6.04368C15.4002 6.00037 15.2853 5.98899 15.1744 6.01099C15.0636 6.03298 14.9617 6.08736 14.8818 6.16725L9.16747 11.8815C9.11434 11.9346 9.07219 11.9976 9.04344 12.067C9.01468 12.1364 8.99988 12.2107 8.99988 12.2858C8.99988 12.3609 9.01468 12.4353 9.04344 12.5046C9.07219 12.574 9.11434 12.637 9.16747 12.6901L14.8818 18.4044C14.9617 18.4844 15.0635 18.5389 15.1744 18.561C15.2853 18.5831 15.4003 18.5718 15.5048 18.5285C15.6092 18.4852 15.6985 18.4119 15.7613 18.3178C15.8241 18.2238 15.8576 18.1132 15.8575 18.0001V6.57154C15.8574 6.45852 15.8239 6.34805 15.7611 6.25409C15.6983 6.16013 15.609 6.08691 15.5046 6.04368Z" fill="#414651"/>
</svg>
