<svg width="24" height="24" viewBox="0 0 24 24" fill="none" xmlns="http://www.w3.org/2000/svg">
<path d="M18.4047 14.8819L12.6905 9.16759C12.6374 9.11446 12.5744 9.07232 12.505 9.04356C12.4356 9.0148 12.3613 9 12.2862 9C12.2111 9 12.1367 9.0148 12.0673 9.04356C11.998 9.07232 11.9349 9.11446 11.8819 9.16759L6.16759 14.8819C6.08759 14.9618 6.03309 15.0637 6.011 15.1746C5.98892 15.2855 6.00024 15.4004 6.04352 15.5049C6.08681 15.6094 6.16012 15.6986 6.25417 15.7614C6.34823 15.8242 6.4588 15.8577 6.57188 15.8576H18.0005C18.1135 15.8577 18.2241 15.8242 18.3182 15.7614C18.4122 15.6986 18.4855 15.6094 18.5288 15.5049C18.5721 15.4004 18.5834 15.2855 18.5613 15.1746C18.5392 15.0637 18.4847 14.9618 18.4047 14.8819Z" fill="#414651"/>
</svg>
