<svg width="24" height="24" viewBox="0 0 24 24" fill="none" xmlns="http://www.w3.org/2000/svg">
<path d="M22.2612 11.4748C22.2612 11.4748 21.534 11.2321 20.5238 10.8957C17.0395 9.73427 14.2657 6.96058 13.1043 3.47642C12.7679 2.46599 12.5252 1.73874 12.5252 1.73874C12.3781 1.29755 11.965 0.99996 11.4999 0.99996C11.0348 0.99996 10.6219 1.29762 10.4747 1.73881C10.4747 1.73881 10.2321 2.46607 9.89576 3.47613C8.73431 6.9605 5.96062 9.73427 2.47639 10.8957C1.46603 11.2321 0.738781 11.4748 0.738781 11.4748C0.297588 11.6219 0 12.0349 0 12.5C0 12.9651 0.29766 13.3781 0.738853 13.5253C0.738853 13.5253 1.46611 13.7678 2.4761 14.1042C5.96054 15.2657 8.73431 18.0393 9.89569 21.5235C10.2321 22.5339 10.4747 23.2611 10.4747 23.2611C10.6219 23.7023 11.0347 24 11.4999 24C11.965 24 12.3781 23.7024 12.5253 23.2612C12.5253 23.2612 12.768 22.5339 13.1043 21.5238C14.2658 18.0394 17.0395 15.2657 20.5236 14.1043C21.534 13.7678 22.2612 13.5253 22.2612 13.5253C22.7024 13.3781 23.0001 12.9652 23.0001 12.5C23.0001 12.0348 22.7024 11.6219 22.2612 11.4748Z" fill="#414651"/>
<path d="M21.8073 2.73256C21.8073 2.73256 21.6175 2.66925 21.354 2.5815C20.4451 2.27851 19.7215 1.55494 19.4185 0.646034C19.3307 0.382444 19.2674 0.192725 19.2674 0.192725C19.229 0.0776314 19.1213 0 19 0C18.8786 0 18.7709 0.0776503 18.7325 0.192744C18.7325 0.192744 18.6692 0.382462 18.5815 0.645958C18.2785 1.55492 17.5549 2.27852 16.646 2.58149C16.3824 2.66925 16.1927 2.73256 16.1927 2.73256C16.0776 2.77094 16 2.87868 16 3.00002C16 3.12135 16.0777 3.22908 16.1927 3.26748C16.1927 3.26748 16.3825 3.33075 16.6459 3.4185C17.5549 3.72148 18.2785 4.44506 18.5815 5.35397C18.6692 5.61754 18.7325 5.80726 18.7325 5.80726C18.7709 5.92235 18.8786 6 19 6C19.1213 6 19.2291 5.92237 19.2675 5.80727C19.2675 5.80727 19.3308 5.61756 19.4185 5.35404C19.7215 4.44508 20.4451 3.72149 21.354 3.41852C21.6175 3.33075 21.8073 3.26748 21.8073 3.26748C21.9223 3.22908 22 3.12137 22 3.00002C22 2.87867 21.9223 2.77094 21.8073 2.73256Z" fill="#414651"/>
<path d="M24 7C24 7.55228 23.5523 8 23 8C22.4477 8 22 7.55228 22 7C22 6.44772 22.4477 6 23 6C23.5523 6 24 6.44772 24 7Z" fill="#414651"/>
</svg>
