<svg width="24" height="24" viewBox="0 0 24 24" fill="none" xmlns="http://www.w3.org/2000/svg">
<path d="M20.3575 12.1085C20.3575 12.1085 19.7251 11.8975 18.8467 11.605C15.8169 10.595 13.4049 8.18315 12.395 5.15345C12.1025 4.27481 11.8914 3.64242 11.8914 3.64242C11.7635 3.25877 11.4044 3 10.9999 3C10.5955 3 10.2364 3.25883 10.1084 3.64248C10.1084 3.64248 9.89747 4.27487 9.60499 5.15319C8.59503 8.18308 6.18313 10.5951 3.15338 11.6049C2.27481 11.8975 1.64242 12.1085 1.64242 12.1085C1.25877 12.2365 1 12.5956 1 13.0001C1 13.4045 1.25883 13.7636 1.64248 13.8916C1.64248 13.8916 2.27487 14.1025 3.15313 14.395C6.18307 15.4049 8.59503 17.8169 9.60492 20.8466C9.89747 21.7251 10.1084 22.3575 10.1084 22.3575C10.2364 22.7412 10.5954 23 10.9999 23C11.4044 23 11.7636 22.7412 11.8915 22.3576C11.8915 22.3576 12.1025 21.7252 12.395 20.8468C13.405 17.8169 15.8169 15.405 18.8466 14.3951C19.7251 14.1025 20.3575 13.8916 20.3575 13.8916C20.7412 13.7636 21 13.4046 21 13.0001C21 12.5955 20.7412 12.2365 20.3575 12.1085Z" fill="#414651"/>
<path d="M22.7751 4.18798C22.7751 4.18798 22.5538 4.11412 22.2464 4.01175C21.1859 3.65827 20.3417 2.8141 19.9883 1.75371C19.8859 1.44618 19.812 1.22485 19.812 1.22485C19.7672 1.09057 19.6415 1 19.5 1C19.3584 1 19.2327 1.09059 19.1879 1.22487C19.1879 1.22487 19.1141 1.44621 19.0117 1.75362C18.6583 2.81408 17.8141 3.65827 16.7537 4.01173C16.4462 4.11412 16.2248 4.18798 16.2248 4.18798C16.0906 4.23276 16 4.35846 16 4.50002C16 4.64158 16.0906 4.76726 16.2249 4.81206C16.2249 4.81206 16.4462 4.88588 16.7536 4.98825C17.8141 5.34173 18.6583 6.1859 19.0117 7.24629C19.1141 7.55379 19.1879 7.77513 19.1879 7.77513C19.2327 7.90941 19.3584 8 19.5 8C19.6415 8 19.7672 7.90943 19.812 7.77515C19.812 7.77515 19.8859 7.55382 19.9883 7.24638C20.3417 6.18592 21.1859 5.34173 22.2463 4.98827C22.5538 4.88588 22.7751 4.81206 22.7751 4.81206C22.9094 4.76726 23 4.6416 23 4.50002C23 4.35844 22.9094 4.23276 22.7751 4.18798Z" fill="#414651"/>
</svg>
