<svg width="24" height="24" viewBox="0 0 24 24" fill="none" xmlns="http://www.w3.org/2000/svg">
<path d="M11.085 4.38477L11.4463 5.46973C12.5557 8.79796 15.2019 11.4442 18.5303 12.5537H18.5312L19.8701 13C19.8027 13.0225 19.7169 13.0511 19.6152 13.085L18.5303 13.4463C15.2021 14.5557 12.5558 17.2019 11.4463 20.5303V20.5312L11 21.8701C10.9775 21.8027 10.9489 21.7169 10.915 21.6152L10.5537 20.5303L10.4453 20.2207C9.27841 17.0384 6.69422 14.5212 3.46973 13.4463H3.46875L2.12988 13C2.19725 12.9775 2.28314 12.9489 2.38477 12.915L3.46973 12.5537C6.79798 11.4443 9.44418 8.79805 10.5537 5.46973V5.46875L11 4.12988C11.0225 4.19725 11.0511 4.28314 11.085 4.38477Z" stroke="#414651" stroke-width="2"/>
<path d="M22.7751 4.18798C22.7751 4.18798 22.5538 4.11412 22.2464 4.01175C21.1859 3.65827 20.3417 2.8141 19.9883 1.75371C19.8859 1.44618 19.812 1.22485 19.812 1.22485C19.7672 1.09057 19.6415 1 19.5 1C19.3584 1 19.2327 1.09059 19.1879 1.22487C19.1879 1.22487 19.1141 1.44621 19.0117 1.75362C18.6583 2.81408 17.8141 3.65827 16.7537 4.01173C16.4462 4.11412 16.2248 4.18798 16.2248 4.18798C16.0906 4.23276 16 4.35846 16 4.50002C16 4.64158 16.0906 4.76726 16.2249 4.81206C16.2249 4.81206 16.4462 4.88588 16.7536 4.98825C17.8141 5.34173 18.6583 6.1859 19.0117 7.24629C19.1141 7.55379 19.1879 7.77513 19.1879 7.77513C19.2327 7.90941 19.3584 8 19.5 8C19.6415 8 19.7672 7.90943 19.812 7.77515C19.812 7.77515 19.8859 7.55382 19.9883 7.24638C20.3417 6.18592 21.1859 5.34173 22.2463 4.98827C22.5538 4.88588 22.7751 4.81206 22.7751 4.81206C22.9094 4.76726 23 4.6416 23 4.50002C23 4.35844 22.9094 4.23276 22.7751 4.18798Z" fill="#414651"/>
</svg>
