<svg width="24" height="24" viewBox="0 0 24 24" fill="none" xmlns="http://www.w3.org/2000/svg">
<g clip-path="url(#clip0_648_69)">
<path d="M10.125 15C13.2316 15 15.75 12.4816 15.75 9.375C15.75 6.2684 13.2316 3.75 10.125 3.75C7.0184 3.75 4.5 6.2684 4.5 9.375C4.5 12.4816 7.0184 15 10.125 15ZM10.125 15C6.89625 15 4.17656 16.4578 2.25 18.75M10.125 15C13.3537 15 16.0734 16.4578 18 18.75M21 14.25C21.8284 14.25 22.5 13.5784 22.5 12.75C22.5 11.9216 21.8284 11.25 21 11.25M21 14.25C20.1716 14.25 19.5 13.5784 19.5 12.75C19.5 11.9216 20.1716 11.25 21 11.25M21 14.25V15.375M21 11.25V10.125M19.7006 12L18.7266 11.4375M19.7006 13.5L18.7266 14.0625M22.2994 13.5L23.2734 14.0625M22.2994 12L23.2734 11.4375" stroke="#414651" stroke-width="1.5" stroke-linecap="round" stroke-linejoin="round"/>
</g>
<defs>
<clipPath id="clip0_648_69">
<rect width="24" height="24" fill="white"/>
</clipPath>
</defs>
</svg>
