<svg width="24" height="24" viewBox="0 0 24 24" fill="none" xmlns="http://www.w3.org/2000/svg">
<path d="M12 15C14.0711 15 15.75 13.3211 15.75 11.25C15.75 9.17893 14.0711 7.5 12 7.5C9.92893 7.5 8.25 9.17893 8.25 11.25C8.25 13.3211 9.92893 15 12 15Z" stroke="#414651" stroke-width="1.5" stroke-linecap="round" stroke-linejoin="round"/>
<path d="M5.9812 18.6909C6.54549 17.5794 7.40654 16.6459 8.4689 15.9938C9.53126 15.3418 10.7534 14.9966 12 14.9966C13.2465 14.9966 14.4686 15.3418 15.531 15.9938C16.5934 16.6459 17.4544 17.5794 18.0187 18.6909" stroke="#414651" stroke-width="1.5" stroke-linecap="round" stroke-linejoin="round"/>
<path d="M20.8754 10.5C21.1918 12.38 20.9026 14.3119 20.0494 16.0168C19.1962 17.7217 17.8233 19.1113 16.1288 19.985C14.4343 20.8587 12.5061 21.1713 10.6224 20.8776C8.73867 20.5839 6.99705 19.6992 5.64899 18.3511C4.30092 17.003 3.41617 15.2614 3.12249 13.3777C2.8288 11.494 3.14138 9.56575 4.01508 7.87129C4.88879 6.17683 6.27841 4.80388 7.9833 3.9507C9.68818 3.09752 11.6201 2.80825 13.5001 3.12466" stroke="#414651" stroke-width="1.5" stroke-linecap="round" stroke-linejoin="round"/>
<path d="M17.25 5.25L18.75 6.75L21.75 3.75" stroke="#414651" stroke-width="1.5" stroke-linecap="round" stroke-linejoin="round"/>
</svg>
