<svg width="24" height="24" viewBox="0 0 24 24" fill="none" xmlns="http://www.w3.org/2000/svg">
<path d="M10.125 15C13.2316 15 15.75 12.4816 15.75 9.375C15.75 6.2684 13.2316 3.75 10.125 3.75C7.0184 3.75 4.5 6.2684 4.5 9.375C4.5 12.4816 7.0184 15 10.125 15ZM10.125 15C6.89625 15 4.17656 16.4578 2.25 18.75M10.125 15C13.3537 15 16.0734 16.4578 18 18.75M19.409 10.159L21 11.75M21 11.75L22.591 13.341M21 11.75L22.591 10.159M21 11.75L19.409 13.341" stroke="#414651" stroke-width="1.5" stroke-linecap="round" stroke-linejoin="round"/>
</svg>
