<svg width="24" height="24" viewBox="0 0 24 24" fill="none" xmlns="http://www.w3.org/2000/svg">
<path d="M7.50001 12L13.4166 6.08346C15.6684 3.83158 18.3431 3.69283 19.5366 3.76314C19.7185 3.77484 19.8899 3.85238 20.0188 3.98127C20.1476 4.11015 20.2252 4.28156 20.2369 4.46346C20.3072 5.65689 20.1666 8.33346 17.9166 10.5835L12 16.5M7.50001 12L12 16.5M7.50001 12L3.645 11.4619C3.5072 11.4422 3.37761 11.3845 3.27073 11.2953C3.16384 11.2061 3.08389 11.089 3.03981 10.9569C2.99574 10.8249 2.98927 10.6832 3.02115 10.5477C3.05303 10.4122 3.12199 10.2882 3.22031 10.1897L6.44062 6.96939C6.58116 6.829 6.77166 6.75011 6.97031 6.75002H12.75M12 16.5L12.5381 20.355C12.5578 20.4928 12.6155 20.6224 12.7047 20.7293C12.7939 20.8362 12.911 20.9161 13.0431 20.9602C13.1751 21.0043 13.3168 21.0107 13.4523 20.9789C13.5878 20.947 13.7118 20.878 13.8103 20.7797L17.0306 17.5594C17.171 17.4188 17.2499 17.2283 17.25 17.0297V11.25M8.86501 17.6081C8.50219 18.4041 7.2797 20.25 3.75001 20.25C3.75001 16.7203 5.59595 15.4978 6.39188 15.135" stroke="#414651" stroke-width="1.5" stroke-linecap="round" stroke-linejoin="round"/>
</svg>
