<svg width="24" height="24" viewBox="0 0 24 24" fill="none" xmlns="http://www.w3.org/2000/svg">
<path d="M7.50012 12C7.50012 10.5166 7.93998 9.0666 8.76409 7.83323C9.5882 6.59986 10.7595 5.63856 12.13 5.07091C13.5004 4.50325 15.0084 4.35472 16.4633 4.64411C17.9182 4.9335 19.2545 5.64781 20.3034 6.6967C21.3523 7.7456 22.0666 9.08197 22.356 10.5368C22.6454 11.9917 22.4969 13.4997 21.9292 14.8701C21.3616 16.2406 20.4003 17.4119 19.1669 18.236C17.9335 19.0601 16.4835 19.5 15.0001 19.5H6.75012C6.0057 19.4991 5.27 19.3399 4.59181 19.0329C3.91363 18.726 3.30848 18.2783 2.81651 17.7196C2.32454 17.1609 1.95701 16.504 1.7383 15.7925C1.51959 15.0809 1.4547 14.331 1.54794 13.5924C1.64118 12.8539 1.89041 12.1436 2.27911 11.5087C2.6678 10.8738 3.18707 10.3289 3.80245 9.91001C4.41783 9.49114 5.11525 9.20792 5.84845 9.07915C6.58164 8.95038 7.33383 8.97901 8.05511 9.16313" stroke="#414651" stroke-width="1.5" stroke-linecap="round" stroke-linejoin="round"/>
</svg>
