<svg width="24" height="24" viewBox="0 0 24 24" fill="none" xmlns="http://www.w3.org/2000/svg">
<path d="M8.99995 19.5L11.9999 15M11.2499 22.5L14.2499 18M8.24995 8.25002C8.32208 7.00609 8.75685 5.8105 9.5006 4.8108C10.2443 3.8111 11.2645 3.05104 12.4352 2.62442C13.6059 2.1978 14.8759 2.12329 16.0885 2.41009C17.3011 2.69689 18.4031 3.33244 19.2587 4.23831C20.1142 5.14418 20.6858 6.28073 20.9029 7.50769C21.12 8.73465 20.9731 9.99832 20.4803 11.1428C19.9876 12.2872 19.1705 13.2623 18.13 13.9478C17.0894 14.6332 15.871 14.999 14.6249 15H7.12495C6.5265 14.9994 5.93535 14.8687 5.3925 14.6167C4.84966 14.3648 4.36813 13.9978 3.98133 13.5412C3.59453 13.0845 3.31172 12.5492 3.15253 11.9723C2.99334 11.3954 2.96157 10.7908 3.05944 10.2004C3.15731 9.61003 3.38247 9.048 3.7193 8.55334C4.05612 8.05868 4.49654 7.64324 5.01 7.33583C5.52346 7.02842 6.09766 6.83642 6.69275 6.77314C7.28784 6.70987 7.88958 6.77683 8.4562 6.96939" stroke="#414651" stroke-width="1.5" stroke-linecap="round" stroke-linejoin="round"/>
</svg>
