<svg width="24" height="24" viewBox="0 0 24 24" fill="none" xmlns="http://www.w3.org/2000/svg">
<g clip-path="url(#clip0_630_13823)">
<path d="M7 23V14H1V23H7ZM7 23V13C7 10.2386 9.23858 8 12 8M7 23H12M17 23V13C17 10.2386 14.7614 8 12 8M17 23H23V14H17V23ZM17 23H12M12 8V2M12 19V23M12 23H13M17 1H12V4H17V1ZM13 13C13 13.5523 12.5523 14 12 14C11.4477 14 11 13.5523 11 13C11 12.4477 11.4477 12 12 12C12.5523 12 13 12.4477 13 13Z" stroke="#414651" stroke-width="1.5" stroke-linecap="round" stroke-linejoin="round"/>
</g>
<defs>
<clipPath id="clip0_630_13823">
<rect width="24" height="24" fill="white"/>
</clipPath>
</defs>
</svg>
