<svg width="24" height="24" viewBox="0 0 24 24" fill="none" xmlns="http://www.w3.org/2000/svg">
<path d="M10.1001 16V4.75C10.1001 4.55109 10.1791 4.36032 10.3198 4.21967C10.4604 4.07902 10.6512 4 10.8501 4H13.8501C14.049 4 14.2398 4.07902 14.3804 4.21967C14.5211 4.36032 14.6001 4.55109 14.6001 4.75V16M20.6001 16V13.75C20.6006 11.9539 20.015 10.2066 18.9321 8.7736C17.8491 7.34061 16.3282 6.30018 14.6001 5.81032M4.1001 16V13.75C4.09957 11.9539 4.68523 10.2066 5.76814 8.7736C6.85105 7.34061 8.37204 6.30018 10.1001 5.81032M3.3501 16H21.3501C21.7643 16 22.1001 16.3358 22.1001 16.75V19C22.1001 19.4142 21.7643 19.75 21.3501 19.75H3.3501C2.93588 19.75 2.6001 19.4142 2.6001 19V16.75C2.6001 16.3358 2.93588 16 3.3501 16Z" stroke="#414651" stroke-width="1.5" stroke-linecap="round" stroke-linejoin="round"/>
</svg>
