<svg width="24" height="24" viewBox="0 0 24 24" fill="none" xmlns="http://www.w3.org/2000/svg">
<path d="M9.19995 15H3.94995C3.75104 15 3.56027 14.921 3.41962 14.7803C3.27897 14.6397 3.19995 14.4489 3.19995 14.25V9.75C3.19995 9.55109 3.27897 9.36032 3.41962 9.21967C3.56027 9.07902 3.75104 9 3.94995 9H9.19995V3.75C9.19995 3.55109 9.27897 3.36032 9.41962 3.21967C9.56027 3.07902 9.75104 3 9.94995 3H14.45C14.6489 3 14.8396 3.07902 14.9803 3.21967C15.1209 3.36032 15.2 3.55109 15.2 3.75V9H20.45C20.6489 9 20.8396 9.07902 20.9803 9.21967C21.1209 9.36032 21.2 9.55109 21.2 9.75V14.25C21.2 14.4489 21.1209 14.6397 20.9803 14.7803C20.8396 14.921 20.6489 15 20.45 15H15.2V20.25C15.2 20.4489 15.1209 20.6397 14.9803 20.7803C14.8396 20.921 14.6489 21 14.45 21H9.94995C9.75104 21 9.56027 20.921 9.41962 20.7803C9.27897 20.6397 9.19995 20.4489 9.19995 20.25V15Z" stroke="#414651" stroke-width="1.5" stroke-linecap="round" stroke-linejoin="round"/>
</svg>
