<svg width="24" height="24" viewBox="0 0 24 24" fill="none" xmlns="http://www.w3.org/2000/svg">
<path d="M13.7998 7.5V18.8128C13.7999 18.9362 13.8304 19.0576 13.8886 19.1663C13.9468 19.2751 14.0309 19.3678 14.1336 19.4363L15.1648 20.1234C15.2648 20.1901 15.3794 20.2318 15.4989 20.2449C15.6184 20.2581 15.7393 20.2423 15.8515 20.1989C15.9636 20.1555 16.0636 20.0858 16.1432 19.9957C16.2227 19.9055 16.2795 19.7976 16.3086 19.6809L17.5498 15M13.7998 7.5L17.5498 7.49999C18.5444 7.49999 19.4982 7.89507 20.2015 8.59834C20.9047 9.3016 21.2998 10.2554 21.2998 11.25C21.2998 12.2445 20.9047 13.1984 20.2015 13.9016C19.4982 14.6049 18.5444 15 17.5498 15M13.7998 7.5C13.7998 7.5 8.69512 7.29749 3.78262 3.17717C3.67338 3.08528 3.54018 3.02646 3.39868 3.00764C3.25717 2.98883 3.11323 3.01078 2.98377 3.07093C2.85431 3.13109 2.74471 3.22694 2.66784 3.34722C2.59096 3.46751 2.55002 3.60723 2.5498 3.74999V18.75C2.54984 18.8928 2.59066 19.0327 2.66746 19.1531C2.74426 19.2735 2.85385 19.3695 2.98335 19.4298C3.11284 19.49 3.25685 19.5121 3.39844 19.4933C3.54003 19.4745 3.67332 19.4157 3.78262 19.3237C8.69512 15.2025 13.7998 15 13.7998 15L17.5498 15" stroke="#414651" stroke-width="1.5" stroke-linecap="round" stroke-linejoin="round"/>
</svg>
