<svg width="24" height="24" viewBox="0 0 24 24" fill="none" xmlns="http://www.w3.org/2000/svg">
<path d="M6.54736 7.05457L11.0277 9.64207M12.0691 5.59766L16.5494 8.18422M3.94946 11.4993H20.4495V19.7493C20.4495 19.9482 20.3704 20.1389 20.2298 20.2796C20.0891 20.4203 19.8984 20.4993 19.6995 20.4993H4.69946C4.50055 20.4993 4.30979 20.4203 4.16913 20.2796C4.02848 20.1389 3.94946 19.9482 3.94946 19.7493V11.4993ZM3.98978 11.4992L19.6995 7.35268L18.9345 4.54018C18.8817 4.35244 18.757 4.19309 18.5874 4.09672C18.4179 4.00036 18.2172 3.97477 18.0288 4.02549L3.74791 7.79331C3.65457 7.81708 3.56689 7.85914 3.48994 7.91706C3.413 7.97498 3.34831 8.0476 3.29965 8.13071C3.25099 8.21382 3.21931 8.30577 3.20646 8.40122C3.19361 8.49667 3.19983 8.59372 3.22478 8.68674L3.98978 11.4992Z" stroke="#414651" stroke-width="1.5" stroke-linecap="round" stroke-linejoin="round"/>
</svg>
