<svg width="24" height="24" viewBox="0 0 24 24" fill="none" xmlns="http://www.w3.org/2000/svg">
<path d="M4.8999 19.5H1.8999C1.70099 19.5 1.51022 19.421 1.36957 19.2803C1.22892 19.1397 1.1499 18.9489 1.1499 18.75V15C1.1499 14.8011 1.22892 14.6103 1.36957 14.4697C1.51022 14.329 1.70099 14.25 1.8999 14.25H4.8999M4.8999 19.5L11.6499 19.5L17.6499 18L21.2893 16.4475C21.548 16.3184 21.7655 16.1197 21.9175 15.8738C22.0696 15.6279 22.15 15.3444 22.1499 15.0553C22.1496 14.8159 22.0941 14.5797 21.9877 14.3652C21.8813 14.1507 21.7269 13.9636 21.5364 13.8185C21.346 13.6734 21.1246 13.5741 20.8896 13.5285C20.6545 13.4829 20.4121 13.492 20.1812 13.5553L13.8999 15H10.8999H13.5249C14.0222 15 14.4991 14.8025 14.8507 14.4508C15.2024 14.0992 15.3999 13.6223 15.3999 13.125C15.3999 12.6277 15.2024 12.1508 14.8507 11.7992C14.4991 11.4476 14.0222 11.25 13.5249 11.25H8.8374C8.54166 11.2493 8.24867 11.3069 7.9752 11.4195C7.70173 11.5321 7.45314 11.6975 7.24365 11.9063L4.8999 14.25M4.8999 19.5V14.25M9.46834 11.25C8.55615 10.0988 7.8999 8.86501 7.8999 7.50001C7.8999 5.46657 9.55646 3.75001 11.5993 3.75001C12.3294 3.74144 13.0454 3.951 13.6557 4.35184C14.266 4.75269 14.7427 5.32657 15.0249 6.00001C15.3071 5.32657 15.7838 4.75269 16.3941 4.35184C17.0044 3.951 17.7204 3.74144 18.4505 3.75001C20.4933 3.75001 22.1499 5.46657 22.1499 7.50001C22.1499 10.2403 19.508 12.6628 17.4418 14.1863" stroke="#414651" stroke-width="1.5" stroke-linecap="round" stroke-linejoin="round"/>
</svg>
