<svg width="24" height="24" viewBox="0 0 24 24" fill="none" xmlns="http://www.w3.org/2000/svg">
<path d="M3.3999 21.25H21.3999M7.1499 17.5H13.1499M13.1499 7.75C14.724 7.75 16.2582 8.24528 17.5352 9.16568C18.8122 10.0861 19.7672 11.385 20.265 12.8783C20.7628 14.3716 20.7781 15.9837 20.3088 17.4863C19.8394 18.9888 18.9092 20.3055 17.6499 21.25M7.8999 3.25H12.3999C12.8141 3.25 13.1499 3.58579 13.1499 4V13.75C13.1499 14.1642 12.8141 14.5 12.3999 14.5H7.8999C7.48569 14.5 7.1499 14.1642 7.1499 13.75V4C7.1499 3.58579 7.48569 3.25 7.8999 3.25Z" stroke="#414651" stroke-width="1.5" stroke-linecap="round" stroke-linejoin="round"/>
</svg>
