<svg width="24" height="24" viewBox="0 0 24 24" fill="none" xmlns="http://www.w3.org/2000/svg">
<path d="M16.8999 16.5H18.3999V7.5H6.3999V9M13.1499 13.5C13.1499 15.1569 11.8068 16.5 10.1499 16.5C8.49305 16.5 7.1499 15.1569 7.1499 13.5C7.1499 11.8431 8.49305 10.5 10.1499 10.5C11.8068 10.5 13.1499 11.8431 13.1499 13.5ZM5.40521 19.5C5.83071 18.6017 6.50248 17.8426 7.34241 17.3111C8.18233 16.7795 9.15591 16.4973 10.1499 16.4973C11.1439 16.4973 12.1175 16.7795 12.9574 17.3111C13.7973 17.8426 14.4691 18.6017 14.8946 19.5H20.6499C20.8488 19.5 21.0396 19.421 21.1802 19.2803C21.3209 19.1397 21.3999 18.9489 21.3999 18.75V5.25C21.3999 5.05109 21.3209 4.86032 21.1802 4.71967C21.0396 4.57902 20.8488 4.5 20.6499 4.5H4.1499C3.95099 4.5 3.76022 4.57902 3.61957 4.71967C3.47892 4.86032 3.3999 5.05109 3.3999 5.25V18.75C3.3999 18.9489 3.47892 19.1397 3.61957 19.2803C3.76022 19.421 3.95099 19.5 4.1499 19.5H5.40521Z" stroke="#414651" stroke-width="1.5" stroke-linecap="round" stroke-linejoin="round"/>
</svg>
