<svg width="24" height="24" viewBox="0 0 24 24" fill="none" xmlns="http://www.w3.org/2000/svg">
<path d="M13.5 22.75C13.9142 22.75 14.25 22.4142 14.25 22C14.25 21.5858 13.9142 21.25 13.5 21.25V22.75ZM10.5 21.25C10.0858 21.25 9.75 21.5858 9.75 22C9.75 22.4142 10.0858 22.75 10.5 22.75V21.25ZM11.5397 2.65751L11.9983 3.251L12 3.24963L11.5397 2.65751ZM12 2.49963V1.74963V2.49963ZM12.4603 2.65751L12 3.24964L12.0018 3.251L12.4603 2.65751ZM17.8111 10.9148C17.5459 10.5966 17.0729 10.5537 16.7548 10.8189C16.4366 11.0842 16.3937 11.5571 16.6589 11.8753L17.8111 10.9148ZM20.0766 14.8038L20.653 14.3239L20.6527 14.3235L20.0766 14.8038ZM20.2322 15.4469L19.5002 15.2836L19.5001 15.2842L20.2322 15.4469ZM19.0734 20.6622L18.3413 20.4995L18.3413 20.4996L19.0734 20.6622ZM17.8725 21.085L18.3413 20.4996C18.3358 20.4951 18.3302 20.4908 18.3245 20.4865L17.8725 21.085ZM7.34102 11.8753C7.60624 11.5571 7.56332 11.0842 7.24516 10.8189C6.927 10.5537 6.45406 10.5966 6.18884 10.9148L7.34102 11.8753ZM3.92336 14.8038L3.34728 14.3235L3.34697 14.3239L3.92336 14.8038ZM3.76774 15.4469L4.49989 15.2842L4.49976 15.2836L3.76774 15.4469ZM4.92649 20.6622L5.65865 20.4996L5.65864 20.4995L4.92649 20.6622ZM6.12743 21.085L5.67545 20.4865C5.66979 20.4908 5.66419 20.4951 5.65865 20.4996L6.12743 21.085ZM13.5 22V21.25H10.5V22V22.75H13.5V22ZM13.125 10.375H12.375C12.375 10.5821 12.2071 10.75 12 10.75V11.5V12.25C13.0355 12.25 13.875 11.4105 13.875 10.375H13.125ZM12 11.5V10.75C11.7929 10.75 11.625 10.5821 11.625 10.375H10.875H10.125C10.125 11.4105 10.9645 12.25 12 12.25V11.5ZM10.875 10.375H11.625C11.625 10.1679 11.7929 10 12 10V9.25V8.5C10.9645 8.5 10.125 9.33947 10.125 10.375H10.875ZM12 9.25V10C12.2071 10 12.375 10.1679 12.375 10.375H13.125H13.875C13.875 9.33947 13.0355 8.5 12 8.5V9.25ZM8.88846 19L9.53369 18.6177C6.96679 14.2859 7.19824 10.7923 8.22086 8.22992C9.26079 5.62422 11.1528 3.90423 11.9983 3.251L11.5397 2.65751L11.0812 2.06402C10.1247 2.80298 8.00567 4.72236 6.82771 7.67392C5.63244 10.6689 5.4392 14.6504 8.24324 19.3824L8.88846 19ZM11.5397 2.65751L12 3.24963V3.24963V2.49963V1.74963C11.6666 1.74963 11.3427 1.86073 11.0794 2.06538L11.5397 2.65751ZM12 2.49963V3.24963V3.24963L12.4603 2.65751L12.9207 2.06538C12.6574 1.86073 12.3335 1.74963 12 1.74963V2.49963ZM12.4603 2.65751L12.0018 3.251C12.8472 3.90423 14.7393 5.62422 15.7792 8.22992C16.8018 10.7923 17.0333 14.2859 14.4664 18.6177L15.1116 19L15.7568 19.3824C18.5609 14.6504 18.3676 10.6689 17.1723 7.67392C15.9944 4.72236 13.8753 2.80298 12.9189 2.06402L12.4603 2.65751ZM15.1116 19V18.25H8.88846V19V19.75H15.1116V19ZM17.235 11.395L16.6589 11.8753L19.5005 15.284L20.0766 14.8038L20.6527 14.3235L17.8111 10.9148L17.235 11.395ZM20.0766 14.8038L19.5002 15.2836L19.5002 15.2836L20.2291 15.1072L20.9581 14.9308C20.9041 14.7078 20.7997 14.5002 20.653 14.3239L20.0766 14.8038ZM20.2291 15.1072L19.5002 15.2836L19.5002 15.2836L20.2322 15.4469L20.9642 15.6102C21.0142 15.3862 21.0121 15.1538 20.9581 14.9308L20.2291 15.1072ZM20.2322 15.4469L19.5001 15.2842L18.3413 20.4995L19.0734 20.6622L19.8056 20.8249L20.9643 15.6096L20.2322 15.4469ZM19.0734 20.6622L18.3413 20.4996L18.3413 20.4996L18.9025 20.9972L19.4636 21.4948C19.6327 21.3041 19.7504 21.0736 19.8056 20.8248L19.0734 20.6622ZM18.9025 20.9972L18.3413 20.4996L18.3413 20.4996L18.5904 21.207L18.8394 21.9144C19.0798 21.8298 19.2946 21.6854 19.4636 21.4948L18.9025 20.9972ZM18.5904 21.207L18.3413 20.4996H18.3413L18.2156 21.239L18.09 21.9784C18.3412 22.0211 18.5991 21.9991 18.8394 21.9144L18.5904 21.207ZM18.2156 21.239L18.3413 20.4996H18.3413L17.8725 21.085L17.4037 21.6705C17.6026 21.8297 17.8388 21.9357 18.09 21.9784L18.2156 21.239ZM17.8725 21.085L18.3245 20.4865L15.5636 18.4015L15.1116 19L14.6596 19.5985L17.4205 21.6835L17.8725 21.085ZM6.76493 11.395L6.18884 10.9148L3.34728 14.3235L3.92336 14.8038L4.49945 15.284L7.34102 11.8753L6.76493 11.395ZM3.92336 14.8038L3.34697 14.3239C3.20018 14.5002 3.09579 14.7079 3.04183 14.9308L3.77079 15.1072L4.49976 15.2836L4.49976 15.2836L3.92336 14.8038ZM3.77079 15.1072L3.04183 14.9308C2.98787 15.1538 2.98578 15.3862 3.03572 15.6102L3.76774 15.4469L4.49976 15.2836L4.49976 15.2836L3.77079 15.1072ZM3.76774 15.4469L3.03559 15.6096L4.19434 20.8249L4.92649 20.6622L5.65864 20.4995L4.49989 15.2842L3.76774 15.4469ZM4.92649 20.6622L4.19433 20.8248C4.24958 21.0736 4.36728 21.3041 4.53632 21.4948L5.09748 20.9972L5.65865 20.4996L5.65865 20.4996L4.92649 20.6622ZM5.09748 20.9972L4.53632 21.4948C4.70536 21.6854 4.92018 21.8298 5.16051 21.9144L5.40958 21.207L5.65865 20.4996V20.4996L5.09748 20.9972ZM5.40958 21.207L5.16051 21.9144C5.40084 21.9991 5.65876 22.0211 5.90996 21.9784L5.7843 21.239L5.65865 20.4996H5.65865L5.40958 21.207ZM5.7843 21.239L5.90996 21.9784C6.16114 21.9357 6.39732 21.8297 6.59621 21.6705L6.12743 21.085L5.65865 20.4996H5.65865L5.7843 21.239ZM6.12743 21.085L6.5794 21.6835L9.34044 19.5985L8.88846 19L8.43649 18.4015L5.67545 20.4865L6.12743 21.085Z" fill="#414651"/>
</svg>
