<svg width="24" height="24" viewBox="0 0 24 24" fill="none" xmlns="http://www.w3.org/2000/svg">
<path d="M16.25 6.5H20.2419C20.3913 6.49993 20.5374 6.54451 20.6613 6.62803C20.7853 6.71155 20.8815 6.8302 20.9375 6.96875L22.25 10.25M22.25 10.25H16.25M22.25 10.25V16.25C22.25 16.4489 22.171 16.6397 22.0303 16.7803C21.8897 16.921 21.6989 17 21.5 17H19.25M1.25 12.5H16.25M19.25 17C19.25 18.2426 18.2426 19.25 17 19.25C15.7574 19.25 14.75 18.2426 14.75 17M19.25 17C19.25 15.7574 18.2426 14.75 17 14.75C15.7574 14.75 14.75 15.7574 14.75 17M14.75 17H8.75M8.75 17C8.75 18.2426 7.74264 19.25 6.5 19.25C5.25736 19.25 4.25 18.2426 4.25 17M8.75 17C8.75 15.7574 7.74264 14.75 6.5 14.75C5.25736 14.75 4.25 15.7574 4.25 17M4.25 17H2C1.80109 17 1.61032 16.921 1.46967 16.7803C1.32902 16.6397 1.25 16.4489 1.25 16.25V5.75C1.25 5.55109 1.32902 5.36032 1.46967 5.21967C1.61032 5.07902 1.80109 5 2 5H16.25V14.8784" stroke="#414651" stroke-width="1.5" stroke-linecap="round" stroke-linejoin="round"/>
</svg>
