<svg width="24" height="24" viewBox="0 0 24 24" fill="none" xmlns="http://www.w3.org/2000/svg">
<path d="M8.25002 12.75C8.9917 12.75 9.71673 12.9699 10.3334 13.382C10.9501 13.794 11.4307 14.3797 11.7146 15.0649C11.9984 15.7502 12.0727 16.5042 11.928 17.2316C11.7833 17.959 11.4261 18.6272 10.9017 19.1516C10.3772 19.6761 9.70904 20.0332 8.98161 20.1779C8.25418 20.3226 7.50018 20.2484 6.81496 19.9645C6.12974 19.6807 5.54407 19.2001 5.13201 18.5834C4.71996 17.9667 4.50002 17.2417 4.50002 16.5V15.8691M15.75 12.75C15.0083 12.75 14.2833 12.9699 13.6666 13.382C13.05 13.794 12.5693 14.3797 12.2855 15.0649C12.0016 15.7502 11.9274 16.5042 12.0721 17.2316C12.2168 17.959 12.5739 18.6272 13.0984 19.1516C13.6228 19.6761 14.291 20.0332 15.0184 20.1779C15.7459 20.3226 16.4999 20.2484 17.1851 19.9645C17.8703 19.6807 18.456 19.2001 18.868 18.5834C19.2801 17.9667 19.5 17.2417 19.5 16.5V15.8691M6.75001 16.125H6.00001C4.93777 16.126 3.90943 15.7511 3.09699 15.0668C2.28454 14.3825 1.74037 13.4328 1.56077 12.3858C1.38117 11.3389 1.57772 10.2622 2.11565 9.34618C2.65357 8.43021 3.49818 7.73407 4.50001 7.38094V6.75C4.50001 5.75544 4.8951 4.80161 5.59836 4.09835C6.30162 3.39509 7.25545 3 8.25001 3C9.24458 3 10.1984 3.39509 10.9017 4.09835C11.6049 4.80161 12 5.75544 12 6.75M12 6.75V16.5M12 6.75C12 5.75544 12.3951 4.80161 13.0984 4.09835C13.8016 3.39509 14.7555 3 15.75 3C16.7446 3 17.6984 3.39509 18.4017 4.09835C19.1049 4.80161 19.5 5.75544 19.5 6.75V7.38094C20.5019 7.73407 21.3465 8.43021 21.8844 9.34618C22.4223 10.2622 22.6189 11.3389 22.4393 12.3858C22.2597 13.4328 21.7155 14.3825 20.9031 15.0668C20.0906 15.7511 19.0623 16.126 18 16.125H17.25M18.75 10.5H18.375C17.6788 10.5 17.0112 10.2234 16.5189 9.73116C16.0266 9.23887 15.75 8.57119 15.75 7.875V7.5M5.25002 10.5H5.62502C6.32122 10.5 6.9889 10.2234 7.48118 9.73116C7.97346 9.23887 8.25002 8.57119 8.25002 7.875V7.5" stroke="#414651" stroke-width="1.5" stroke-linecap="round" stroke-linejoin="round"/>
</svg>
