<svg width="24" height="24" viewBox="0 0 24 24" fill="none" xmlns="http://www.w3.org/2000/svg">
<path d="M12.0001 5.25V16.875M12.0001 16.875C11.9983 17.5286 11.8073 18.1677 11.4502 18.7151C11.0931 19.2626 10.5852 19.6949 9.98779 19.96C9.39036 20.2251 8.72897 20.3116 8.08347 20.209C7.43797 20.1064 6.83597 19.8191 6.35015 19.3819C5.86433 18.9447 5.51548 18.3761 5.3457 17.745C5.17592 17.1138 5.19248 16.447 5.39339 15.825C5.59429 15.2031 5.97094 14.6526 6.47787 14.24C6.98479 13.8274 7.60031 13.5704 8.2501 13.5M12.0001 16.875C12.0041 17.5256 12.1961 18.1612 12.553 18.7052C12.9099 19.2493 13.4164 19.6785 14.0115 19.9414C14.6067 20.2043 15.2651 20.2895 15.9076 20.1868C16.5501 20.0841 17.1492 19.798 17.6328 19.3627C18.1164 18.9275 18.4639 18.3617 18.6334 17.7336C18.803 17.1054 18.7873 16.4417 18.5884 15.8222C18.3895 15.2027 18.0157 14.654 17.5122 14.242C17.0086 13.83 16.3967 13.5723 15.7501 13.5M17.6026 14.2444C18.3573 14.2894 20.3682 14.1234 21.1051 11.2228C21.8635 8.235 22.5207 4.5 19.5873 4.5C16.6539 4.5 12.0001 8.98125 12.0001 11.9691C12.0001 8.98125 7.34636 4.5 4.41292 4.5C1.47949 4.5 2.13667 8.235 2.89511 11.2228C3.63199 14.1234 5.64292 14.2894 6.39761 14.2444" stroke="#414651" stroke-width="1.5" stroke-linecap="round" stroke-linejoin="round"/>
</svg>
