<svg width="24" height="24" viewBox="0 0 24 24" fill="none" xmlns="http://www.w3.org/2000/svg">
<path d="M7.5 15V21M7.5 15L1.5 12M7.5 15L22.5 7.5M7.5 21L22.5 13.5V7.5M7.5 21L1.5 18V12M1.5 12L4.89281 10.3031M22.5 7.5L17.9278 5.21344M12.3928 6.55313L9.52126 7.98938M10.5 9.375C10.5 10.4105 9.15685 11.25 7.5 11.25C5.84315 11.25 4.5 10.4105 4.5 9.375C4.5 8.33947 5.84315 7.5 7.5 7.5C9.15685 7.5 10.5 8.33947 10.5 9.375ZM18 5.625C18 6.66053 16.6569 7.5 15 7.5C13.3431 7.5 12 6.66053 12 5.625C12 4.58947 13.3431 3.75 15 3.75C16.6569 3.75 18 4.58947 18 5.625Z" stroke="#414651" stroke-width="1.5" stroke-linecap="round" stroke-linejoin="round"/>
</svg>
