<svg width="24" height="24" viewBox="0 0 24 24" fill="none" xmlns="http://www.w3.org/2000/svg">
<path d="M15 7.49998L7.18965 15.4397C6.9152 15.7224 6.76301 16.1017 6.76597 16.4958C6.76894 16.8898 6.92682 17.2668 7.20551 17.5454C7.48419 17.8239 7.86128 17.9816 8.2553 17.9844C8.64932 17.9872 9.02861 17.8349 9.31122 17.5603L18.6215 8.12154C19.1842 7.55887 19.5003 6.79572 19.5003 5.99998C19.5003 5.20424 19.1842 4.44109 18.6215 3.87841C18.0589 3.31574 17.2957 2.99963 16.5 2.99963C15.7042 2.99963 14.9411 3.31574 14.3784 3.87841L5.06809 13.3181C4.23553 14.1643 3.77108 15.3053 3.77592 16.4924C3.78075 17.6795 4.25447 18.8166 5.0939 19.656C5.93332 20.4955 7.07044 20.9692 8.25756 20.974C9.44467 20.9789 10.5856 20.5144 11.4318 19.6819L19.125 12" stroke="#414651" stroke-width="1.5" stroke-linecap="round" stroke-linejoin="round"/>
</svg>
