<svg width="24" height="24" viewBox="0 0 24 24" fill="none" xmlns="http://www.w3.org/2000/svg">
<path d="M17.25 17.25V19.5C17.25 19.6989 17.171 19.8897 17.0303 20.0303C16.8897 20.171 16.6989 20.25 16.5 20.25H4.5C4.30109 20.25 4.11032 20.171 3.96967 20.0303C3.82902 19.8897 3.75 19.6989 3.75 19.5V7.5C3.75 7.30109 3.82902 7.11032 3.96967 6.96967C4.11032 6.82902 4.30109 6.75 4.5 6.75H6.75M9.06468 17.25L16.3444 9.96937C16.414 9.89964 16.4967 9.84432 16.5878 9.80658C16.6788 9.76883 16.7764 9.7494 16.875 9.7494C16.9736 9.7494 17.0712 9.76883 17.1622 9.80658C17.2532 9.84432 17.336 9.89964 17.4056 9.96937L20.25 12.8147M7.5 3.75H19.5C19.9142 3.75 20.25 4.08579 20.25 4.5V16.5C20.25 16.9142 19.9142 17.25 19.5 17.25H7.5C7.08579 17.25 6.75 16.9142 6.75 16.5V4.5C6.75 4.08579 7.08579 3.75 7.5 3.75ZM12.75 8.25C12.75 9.07843 12.0784 9.75 11.25 9.75C10.4216 9.75 9.75 9.07843 9.75 8.25C9.75 7.42157 10.4216 6.75 11.25 6.75C12.0784 6.75 12.75 7.42157 12.75 8.25Z" stroke="#414651" stroke-width="1.5" stroke-linecap="round" stroke-linejoin="round"/>
</svg>
