<svg width="24" height="24" viewBox="0 0 24 24" fill="none" xmlns="http://www.w3.org/2000/svg">
<path d="M5.31468 20.25L15.5944 9.96937C15.664 9.89964 15.7467 9.84432 15.8378 9.80658C15.9288 9.76883 16.0264 9.7494 16.125 9.7494C16.2236 9.7494 16.3212 9.76883 16.4122 9.80658C16.5032 9.84432 16.586 9.89964 16.6556 9.96937L20.25 13.5647M4.5 3.75H19.5C19.9142 3.75 20.25 4.08579 20.25 4.5V19.5C20.25 19.9142 19.9142 20.25 19.5 20.25H4.5C4.08579 20.25 3.75 19.9142 3.75 19.5V4.5C3.75 4.08579 4.08579 3.75 4.5 3.75ZM10.5 9C10.5 9.82843 9.82843 10.5 9 10.5C8.17157 10.5 7.5 9.82843 7.5 9C7.5 8.17157 8.17157 7.5 9 7.5C9.82843 7.5 10.5 8.17157 10.5 9Z" stroke="#414651" stroke-width="1.5" stroke-linecap="round" stroke-linejoin="round"/>
</svg>
