<svg width="24" height="24" viewBox="0 0 24 24" fill="none" xmlns="http://www.w3.org/2000/svg">
<path d="M13.2545 6.06377L14.2857 5.03252C14.6916 4.62654 15.1735 4.30449 15.7038 4.08477C16.2342 3.86504 16.8026 3.75195 17.3767 3.75195C17.9507 3.75195 18.5192 3.86504 19.0495 4.08477C19.5799 4.30449 20.0617 4.62654 20.4676 5.03252C20.8736 5.43838 21.1956 5.92025 21.4154 6.4506C21.6351 6.98095 21.7482 7.54939 21.7482 8.12346C21.7482 8.69752 21.6351 9.26596 21.4154 9.79631C21.1956 10.3267 20.8736 10.8085 20.4676 11.2144L17.2126 14.4694C16.8063 14.8758 16.3238 15.1981 15.7928 15.4178C15.2617 15.6376 14.6926 15.7505 14.1179 15.75C13.5432 15.7496 12.9742 15.6359 12.4435 15.4153C11.9128 15.1948 11.4308 14.8717 11.0251 14.4647C10.6051 14.0449 10.2754 13.5437 10.0562 12.9919C9.83691 12.44 9.73276 11.8492 9.7501 11.2556M10.7457 17.9363L9.71448 18.9675C9.30814 19.3739 8.82565 19.6962 8.29463 19.916C7.7636 20.1357 7.19446 20.2486 6.61976 20.2482C6.04506 20.2477 5.47609 20.134 4.94539 19.9134C4.4147 19.6929 3.9327 19.3699 3.52698 18.9628C2.70947 18.1425 2.2509 17.0312 2.25195 15.8731C2.25301 14.7149 2.7136 13.6045 3.5326 12.7856L6.7876 9.53064C7.19347 9.12466 7.67534 8.80261 8.20569 8.58289C8.73604 8.36317 9.30448 8.25008 9.87854 8.25008C10.4526 8.25008 11.021 8.36317 11.5514 8.58289C12.0817 8.80261 12.5636 9.12466 12.9695 9.53064C13.3912 9.95041 13.7224 10.4522 13.9426 11.0049C14.1629 11.5576 14.2675 12.1496 14.2501 12.7444" stroke="#414651" stroke-width="1.5" stroke-linecap="round" stroke-linejoin="round"/>
</svg>
