<svg width="24" height="24" viewBox="0 0 24 24" fill="none" xmlns="http://www.w3.org/2000/svg">
<path d="M8.99992 15L14.9999 8.99998M10.4999 7.13529L13.318 4.32279C14.1643 3.49023 15.3052 3.02578 16.4923 3.03062C17.6794 3.03545 18.8166 3.50917 19.656 4.3486C20.4954 5.18802 20.9691 6.32514 20.974 7.51226C20.9788 8.69937 20.5144 9.84031 19.6818 10.6865L16.8637 13.5M7.13523 10.5L4.32273 13.3181C3.49017 14.1643 3.02572 15.3053 3.03055 16.4924C3.03539 17.6795 3.50911 18.8166 4.34854 19.656C5.18796 20.4955 6.32508 20.9692 7.51219 20.974C8.69931 20.9789 9.84025 20.5144 10.6865 19.6819L13.4999 16.8637" stroke="#414651" stroke-width="1.5" stroke-linecap="round" stroke-linejoin="round"/>
</svg>
