<svg width="24" height="24" viewBox="0 0 24 24" fill="none" xmlns="http://www.w3.org/2000/svg">
<path d="M7.5 9.75C7.08579 9.75 6.75 10.0858 6.75 10.5C6.75 10.9142 7.08579 11.25 7.5 11.25V9.75ZM16.5 11.25C16.9142 11.25 17.25 10.9142 17.25 10.5C17.25 10.0858 16.9142 9.75 16.5 9.75V11.25ZM14.376 17.666C14.6057 18.0107 15.0714 18.1038 15.416 17.874C15.7607 17.6443 15.8538 17.1786 15.624 16.834L14.376 17.666ZM8.37596 16.834C8.1462 17.1786 8.23933 17.6443 8.58397 17.874C8.92862 18.1038 9.39427 18.0107 9.62404 17.666L8.37596 16.834ZM12.75 10.5C12.75 10.0858 12.4142 9.75 12 9.75C11.5858 9.75 11.25 10.0858 11.25 10.5H12.75ZM21 12H20.25C20.25 16.5563 16.5563 20.25 12 20.25V21V21.75C17.3848 21.75 21.75 17.3848 21.75 12H21ZM12 21V20.25C7.44365 20.25 3.75 16.5563 3.75 12H3H2.25C2.25 17.3848 6.61522 21.75 12 21.75V21ZM3 12H3.75C3.75 7.44365 7.44365 3.75 12 3.75V3V2.25C6.61522 2.25 2.25 6.61522 2.25 12H3ZM12 3V3.75C16.5563 3.75 20.25 7.44365 20.25 12H21H21.75C21.75 6.61522 17.3848 2.25 12 2.25V3ZM13.5 7.5H12.75C12.75 7.91421 12.4142 8.25 12 8.25V9V9.75C13.2426 9.75 14.25 8.74264 14.25 7.5H13.5ZM12 9V8.25C11.5858 8.25 11.25 7.91421 11.25 7.5H10.5H9.75C9.75 8.74264 10.7574 9.75 12 9.75V9ZM10.5 7.5H11.25C11.25 7.08579 11.5858 6.75 12 6.75V6V5.25C10.7574 5.25 9.75 6.25736 9.75 7.5H10.5ZM12 6V6.75C12.4142 6.75 12.75 7.08579 12.75 7.5H13.5H14.25C14.25 6.25736 13.2426 5.25 12 5.25V6ZM7.5 10.5V11.25H16.5V10.5V9.75H7.5V10.5ZM15 17.25L15.624 16.834L12.624 12.334L12 12.75L11.376 13.166L14.376 17.666L15 17.25ZM12 12.75L11.376 12.334L8.37596 16.834L9 17.25L9.62404 17.666L12.624 13.166L12 12.75ZM12 10.5H11.25V12.75H12H12.75V10.5H12Z" fill="#414651"/>
</svg>
