<svg width="24" height="24" viewBox="0 0 24 24" fill="none" xmlns="http://www.w3.org/2000/svg">
<path d="M7.49332 19.7916C9.38381 20.8857 11.6077 21.255 13.7504 20.8305C15.893 20.4061 17.8082 19.2169 19.1388 17.4847C20.4695 15.7525 21.1247 13.5955 20.9824 11.4158C20.8401 9.23617 19.91 7.18265 18.3655 5.63813C16.821 4.0936 14.7675 3.16349 12.5878 3.0212C10.4081 2.87892 8.25113 3.53417 6.51892 4.8648C4.78671 6.19543 3.59752 8.1106 3.17309 10.2533C2.74865 12.3959 3.11792 14.6198 4.21207 16.5103L3.03925 20.0119C2.99518 20.144 2.98879 20.2858 3.02078 20.4214C3.05278 20.557 3.1219 20.681 3.2204 20.7795C3.3189 20.878 3.44289 20.9471 3.57847 20.9791C3.71405 21.0111 3.85586 21.0047 3.988 20.9606L7.49332 19.7916Z" stroke="#414651" stroke-width="1.5" stroke-linecap="round" stroke-linejoin="round"/>
</svg>
