<svg width="24" height="24" viewBox="0 0 24 24" fill="none" xmlns="http://www.w3.org/2000/svg">
<path d="M15.3695 7.51029C16.5034 7.57194 17.6035 7.91867 18.5678 8.51839C19.5321 9.11811 20.3295 9.95143 20.8863 10.9412C21.443 11.931 21.741 13.0452 21.7527 14.1808C21.7644 15.3163 21.4894 16.4364 20.9532 17.4375L21.7182 20.04C21.7562 20.1692 21.7586 20.3063 21.7253 20.4368C21.692 20.5673 21.6242 20.6864 21.529 20.7816C21.4337 20.8769 21.3146 20.9447 21.1841 20.978C21.0536 21.0113 20.9165 21.0089 20.7873 20.9709L18.1876 20.2031C17.3288 20.6624 16.3809 20.9305 15.4088 20.9891C14.4367 21.0478 13.4635 20.8955 12.5557 20.5428C11.648 20.1901 10.8273 19.6453 10.1498 18.9457C9.4723 18.2461 8.95412 17.4083 8.63074 16.4897M3.04698 12.9375C2.28297 11.5102 2.0574 9.85578 2.41141 8.27602C2.76542 6.69626 3.67542 5.29635 4.97548 4.33156C6.27554 3.36678 7.87905 2.90138 9.49362 3.02024C11.1082 3.1391 12.6263 3.83429 13.771 4.97905C14.9158 6.12382 15.611 7.64189 15.7298 9.25646C15.8487 10.871 15.3833 12.4745 14.4185 13.7746C13.4537 15.0747 12.0538 15.9847 10.4741 16.3387C8.8943 16.6927 7.23993 16.4671 5.8126 15.7031L3.2101 16.4681C3.08087 16.5061 2.94381 16.5085 2.81331 16.4752C2.68281 16.4419 2.56368 16.3741 2.46845 16.2788C2.37321 16.1836 2.30538 16.0645 2.27207 15.934C2.23876 15.8035 2.24121 15.6664 2.27916 15.5372L3.04698 12.9375Z" stroke="#414651" stroke-width="1.5" stroke-linecap="round" stroke-linejoin="round"/>
</svg>
