<svg width="24" height="24" viewBox="0 0 24 24" fill="none" xmlns="http://www.w3.org/2000/svg">
<path d="M10.125 13.125H3.75C3.55109 13.125 3.36032 13.046 3.21967 12.9053C3.07902 12.7647 3 12.5739 3 12.375V6.375C3 6.17609 3.07902 5.98532 3.21967 5.84467C3.36032 5.70402 3.55109 5.625 3.75 5.625H9.375C9.57391 5.625 9.76468 5.70402 9.90533 5.84467C10.046 5.98532 10.125 6.17609 10.125 6.375V14.625C10.125 15.6196 9.72991 16.5734 9.02665 17.2767C8.32339 17.9799 7.36956 18.375 6.375 18.375M21.25 13.125H14.875C14.6761 13.125 14.4853 13.046 14.3447 12.9053C14.204 12.7647 14.125 12.5739 14.125 12.375V6.375C14.125 6.17609 14.204 5.98532 14.3447 5.84467C14.4853 5.70402 14.6761 5.625 14.875 5.625H20.5C20.6989 5.625 20.8897 5.70402 21.0303 5.84467C21.171 5.98532 21.25 6.17609 21.25 6.375V14.625C21.25 15.6196 20.8549 16.5734 20.1516 17.2767C19.4484 17.9799 18.4946 18.375 17.5 18.375" stroke="#414651" stroke-width="1.5" stroke-linecap="round" stroke-linejoin="round"/>
</svg>
