<svg width="24" height="24" viewBox="0 0 24 24" fill="none" xmlns="http://www.w3.org/2000/svg">
<path d="M4.49989 3.74998L19.4999 20.25M8.99989 18C8.99989 18.7956 9.31596 19.5587 9.87856 20.1213C10.4412 20.6839 11.2042 21 11.9999 21C12.7955 21 13.5586 20.6839 14.1212 20.1213C14.6838 19.5587 14.9999 18.7956 14.9999 18M8.66988 3.87748C9.69679 3.29507 10.8585 2.99217 12.039 2.99901C13.2196 3.00586 14.3777 3.32222 15.3978 3.91651C16.4179 4.51079 17.2642 5.36223 17.8524 6.38583C18.4406 7.40944 18.7501 8.56941 18.7499 9.74998C18.7499 12.4781 19.2636 14.7712 19.7877 16.1062M17.4543 18H4.49988C4.36861 17.9992 4.23985 17.964 4.12646 17.8978C4.01308 17.8317 3.91904 17.7369 3.85375 17.623C3.78845 17.5091 3.7542 17.3801 3.7544 17.2488C3.75459 17.1176 3.78925 16.9887 3.85488 16.875C4.4727 15.8062 5.24988 13.1072 5.24988 9.74997C5.24763 8.37373 5.66815 7.03001 6.45457 5.9006" stroke="#414651" stroke-width="1.5" stroke-linecap="round" stroke-linejoin="round"/>
</svg>
