<svg width="24" height="24" viewBox="0 0 24 24" fill="none" xmlns="http://www.w3.org/2000/svg">
<path d="M11.7507 20.5006L20.1282 12.0031C21.0074 11.1239 21.5014 9.93148 21.5014 8.68812C21.5014 7.44475 21.0074 6.25231 20.1282 5.37312C19.249 4.49393 18.0566 4 16.8132 4C15.5699 4 14.3774 4.49393 13.4982 5.37312L11.7507 7.00062L10.0032 5.37312C9.12405 4.49393 7.93161 4 6.68824 4C5.44487 4 4.25243 4.49393 3.37324 5.37312C2.49405 6.25231 2.00012 7.44475 2.00012 8.68812C2.00012 9.93148 2.49405 11.1239 3.37324 12.0031L11.7507 20.5006Z" stroke="#414651" stroke-width="1.5" stroke-linecap="round" stroke-linejoin="round"/>
</svg>
