<svg width="24" height="24" viewBox="0 0 24 24" fill="none" xmlns="http://www.w3.org/2000/svg">
<path d="M8.5 9.75V6.75C8.5 5.75544 8.89509 4.80161 9.59835 4.09835C10.3016 3.39509 11.2554 3 12.25 3C13.2446 3 14.1984 3.39509 14.9017 4.09835C15.6049 4.80161 16 5.75544 16 6.75V9.75M4.75 9.75H19.75C20.1642 9.75 20.5 10.0858 20.5 10.5V21C20.5 21.4142 20.1642 21.75 19.75 21.75H4.75C4.33579 21.75 4 21.4142 4 21V10.5C4 10.0858 4.33579 9.75 4.75 9.75Z" stroke="#414651" stroke-width="1.5" stroke-linecap="round" stroke-linejoin="round"/>
</svg>
