<svg width="25" height="25" viewBox="0 0 25 25" fill="none" xmlns="http://www.w3.org/2000/svg">
<path d="M8.98438 7.03125C9.63158 7.03125 10.1562 6.50658 10.1562 5.85938C10.1562 5.21217 9.63158 4.6875 8.98438 4.6875C8.33717 4.6875 7.8125 5.21217 7.8125 5.85938C7.8125 6.50658 8.33717 7.03125 8.98438 7.03125Z" fill="#414651"/>
<path d="M16.0156 7.03125C16.6628 7.03125 17.1875 6.50658 17.1875 5.85938C17.1875 5.21217 16.6628 4.6875 16.0156 4.6875C15.3684 4.6875 14.8438 5.21217 14.8438 5.85938C14.8438 6.50658 15.3684 7.03125 16.0156 7.03125Z" fill="#414651"/>
<path d="M8.98438 13.6719C9.63158 13.6719 10.1562 13.1472 10.1562 12.5C10.1562 11.8528 9.63158 11.3281 8.98438 11.3281C8.33717 11.3281 7.8125 11.8528 7.8125 12.5C7.8125 13.1472 8.33717 13.6719 8.98438 13.6719Z" fill="#414651"/>
<path d="M16.0156 13.6719C16.6628 13.6719 17.1875 13.1472 17.1875 12.5C17.1875 11.8528 16.6628 11.3281 16.0156 11.3281C15.3684 11.3281 14.8438 11.8528 14.8438 12.5C14.8438 13.1472 15.3684 13.6719 16.0156 13.6719Z" fill="#414651"/>
<path d="M8.98438 20.3125C9.63158 20.3125 10.1562 19.7878 10.1562 19.1406C10.1562 18.4934 9.63158 17.9688 8.98438 17.9688C8.33717 17.9688 7.8125 18.4934 7.8125 19.1406C7.8125 19.7878 8.33717 20.3125 8.98438 20.3125Z" fill="#414651"/>
<path d="M16.0156 20.3125C16.6628 20.3125 17.1875 19.7878 17.1875 19.1406C17.1875 18.4934 16.6628 17.9688 16.0156 17.9688C15.3684 17.9688 14.8438 18.4934 14.8438 19.1406C14.8438 19.7878 15.3684 20.3125 16.0156 20.3125Z" fill="#414651"/>
</svg>
