<svg width="24" height="24" viewBox="0 0 24 24" fill="none" xmlns="http://www.w3.org/2000/svg">
<path d="M7.25 3H2.75C2.55109 3 2.36032 3.07902 2.21967 3.21967C2.07902 3.36032 2 3.55109 2 3.75V12C2 12.1989 2.07902 12.3897 2.21967 12.5303C2.36032 12.671 2.55109 12.75 2.75 12.75H7.25M7.25 3V12.75M7.25 3H18.875C19.2403 3.0001 19.593 3.13349 19.8669 3.37514C20.1408 3.61679 20.3172 3.95009 20.3628 4.3125L21.4878 13.3125C21.5144 13.5236 21.4958 13.738 21.4332 13.9413C21.3706 14.1447 21.2654 14.3324 21.1247 14.492C20.984 14.6516 20.8109 14.7794 20.617 14.867C20.4231 14.9546 20.2128 14.9999 20 15H14V17.25C14 18.0456 13.6839 18.8087 13.1213 19.3713C12.5587 19.9339 11.7956 20.25 11 20.25L7.25 12.75" stroke="#414651" stroke-width="1.5" stroke-linecap="round" stroke-linejoin="round"/>
</svg>
