<svg width="24" height="24" viewBox="0 0 24 24" fill="none" xmlns="http://www.w3.org/2000/svg">
<path d="M7.25 10.5H2.75C2.55109 10.5 2.36032 10.579 2.21967 10.7197C2.07902 10.8603 2 11.0511 2 11.25V19.5C2 19.6989 2.07902 19.8897 2.21967 20.0303C2.36032 20.171 2.55109 20.25 2.75 20.25H7.25M7.25 10.5V20.25M7.25 10.5L11 3C11.7956 3 12.5587 3.31607 13.1213 3.87868C13.6839 4.44129 14 5.20435 14 6V8.25H20C20.2128 8.25006 20.4231 8.29539 20.617 8.38297C20.8109 8.47056 20.984 8.5984 21.1247 8.758C21.2654 8.9176 21.3706 9.10532 21.4332 9.30868C21.4958 9.51204 21.5144 9.72639 21.4878 9.9375L20.3628 18.9375C20.3172 19.2999 20.1408 19.6332 19.8669 19.8749C19.593 20.1165 19.2403 20.2499 18.875 20.25H7.25" stroke="#414651" stroke-width="1.5" stroke-linecap="round" stroke-linejoin="round"/>
</svg>
